<svg width="23" height="23" viewBox="0 0 16 12" fill="none" xmlns="http://www.w3.org/2000/svg">
<g clip-path="url(#clip0_181_477)">
<path d="M11.32 4.2613C10.9966 4.0134 10.4939 3.6788 10.28 4.43431C10.2072 4.6912 10.0373 4.88922 9.89167 5.04865C9.73471 4.49084 9.26244 3.91346 8.81746 3.52417C8.65094 3.37852 8.06011 2.79953 7.94661 1.83091C7.92967 1.68634 7.68511 1.61846 7.53214 1.71597C6.07031 2.64773 5.26793 3.92923 5.23814 5.37193C5.23814 5.37193 4.62943 5.01167 4.29873 4.34144C4.20969 4.16096 3.86508 4.12653 3.71557 4.28611C3.68687 4.31676 3.66026 4.34744 3.63625 4.37724C2.50839 5.77753 1.96584 7.47798 2.46741 9.06001C3.30605 11.7094 8.85349 12.4501 11.7903 10.7849C14.6637 9.15573 13.7503 6.12343 11.32 4.2613Z" fill="#ED694A"/>
<path d="M3.24825 9.22638C2.7525 7.62743 3.27725 5.91042 4.37863 4.48822C4.35077 4.44104 4.32398 4.39224 4.29895 4.3415C4.2099 4.16102 3.8653 4.12659 3.71578 4.28617C3.68708 4.31682 3.6605 4.34751 3.6365 4.3773C2.50864 5.77759 1.96609 7.47804 2.46766 9.06007C2.85018 10.2685 4.21248 11.0796 5.85976 11.4467C4.57469 11.0096 3.56833 10.2603 3.24825 9.22638Z" fill="#D8553A"/>
<path d="M6.02275 5.3454C6.08364 4.03605 6.75812 2.86197 7.96529 1.96004C7.95699 1.91037 7.95084 1.86596 7.94687 1.83225C7.92956 1.68646 7.69395 1.61334 7.54165 1.70999C6.12974 2.6063 5.26917 3.87484 5.23828 5.37191L5.50254 5.51601C5.63268 5.58698 5.80902 5.58389 5.93331 5.51888C6.00747 5.47474 6.01811 5.40814 6.02275 5.3454Z" fill="#D8553A"/>
<path d="M10.4333 6.19806C10.1945 6.01495 9.82314 5.7678 9.66517 6.32585C9.61146 6.51557 9.4859 6.66185 9.37839 6.77962C9.26246 6.3676 8.91361 5.94113 8.58495 5.6536C8.46196 5.54603 8.02558 5.11839 7.94172 4.4029C7.9292 4.29611 7.74859 4.246 7.6356 4.31801C6.55587 5.00622 5.96319 5.95279 5.94122 7.01837C5.94122 7.01837 5.4916 6.75228 5.24737 6.25724C5.1816 6.12393 4.92704 6.0985 4.81663 6.21638C4.79545 6.239 4.77578 6.26169 4.75804 6.28369C3.92496 7.31797 3.52422 8.57395 3.89468 9.74249C4.51412 11.6994 8.61156 12.2465 10.7808 11.0165C12.9031 9.8132 12.2285 7.57349 10.4333 6.19806Z" fill="#F4A32C"/>
<path d="M4.66727 9.896C4.33928 8.75372 4.679 7.52804 5.39928 6.50741C5.34439 6.43195 5.29238 6.34852 5.24734 6.25727C5.18157 6.12397 4.92701 6.09852 4.8166 6.21639C4.79542 6.23901 4.77575 6.2617 4.75801 6.28372C3.92496 7.318 3.52425 8.57398 3.89465 9.7425C4.18276 10.6526 5.22328 11.2576 6.4721 11.5209C5.58483 11.2085 4.88622 10.6595 4.66727 9.896Z" fill="#E89528"/>
<path d="M9.62413 7.96624C9.46246 7.8423 9.21103 7.67497 9.1041 8.05275C9.06776 8.1812 8.98274 8.2802 8.90994 8.35992C8.83144 8.08099 8.59534 7.79231 8.37282 7.59768C8.28959 7.52485 7.99418 7.23537 7.93738 6.75104C7.92889 6.67874 7.80666 6.6448 7.73016 6.69358C6.99924 7.15946 6.59805 7.80023 6.58317 8.52155C6.58317 8.52155 6.27879 8.3414 6.11348 8.00631C6.06896 7.91608 5.89666 7.89887 5.82192 7.97865C5.80755 7.99395 5.79428 8.00932 5.78224 8.02421C5.21833 8.72436 4.94704 9.57457 5.19781 10.3656C5.61712 11.6903 8.39085 12.0607 9.85926 11.2281C10.3621 10.9429 10.6739 10.5412 10.7371 10.0968C10.8326 9.42365 10.4636 8.60946 9.62413 7.96624Z" fill="#F4D44E"/>
<path d="M8.87273 9.60702C8.78266 9.53796 8.6426 9.44475 8.58302 9.6552C8.56277 9.72677 8.51543 9.78193 8.47484 9.82634C8.43111 9.67095 8.29957 9.51011 8.17561 9.40168C8.12924 9.3611 7.96464 9.19981 7.93299 8.92999C7.92827 8.8897 7.86013 8.87083 7.81755 8.89796C7.41036 9.15752 7.1868 9.51451 7.17853 9.91638C7.17853 9.91638 7.00895 9.81602 6.91685 9.62932C6.89202 9.57904 6.79604 9.56944 6.75442 9.61391C6.74642 9.62245 6.73903 9.631 6.73236 9.6393C6.41818 10.0294 6.26704 10.5031 6.40676 10.9438C6.72493 11.9489 9.3329 11.9184 9.49287 10.794C9.54597 10.419 9.34042 9.96535 8.87273 9.60702Z" fill="#EAE9E8"/>
<path d="M7.01229 11.1432C6.87257 10.749 7.02371 10.3253 7.33789 9.97635C7.34456 9.96893 7.35198 9.96129 7.35995 9.95365C7.4016 9.91387 7.49758 9.92245 7.52237 9.96741C7.61448 10.1344 7.78406 10.2242 7.78406 10.2242C7.79087 9.92883 7.94326 9.66069 8.22316 9.44563C8.16058 9.38476 7.96909 9.23801 7.93299 8.93001C7.92826 8.88973 7.86013 8.87085 7.81755 8.89798C7.41036 9.15755 7.1868 9.51453 7.17853 9.9164C7.17853 9.9164 7.00895 9.81604 6.91685 9.62937C6.89205 9.57908 6.79604 9.56948 6.75442 9.61396C6.74642 9.62249 6.73903 9.63105 6.73236 9.63935C6.41818 10.0294 6.26704 10.5031 6.40676 10.9438C6.53605 11.3523 7.06723 11.5978 7.65449 11.657C7.33771 11.5478 7.09424 11.3748 7.01229 11.1432Z" fill="#F7E7A1"/>
<path d="M5.59503 2.22335C6.25045 1.84904 6.249 1.14875 5.59503 0.775291C4.93962 1.14958 4.94104 1.8499 5.59503 2.22335Z" fill="#D8553A"/>
<path d="M13.451 5.22752C14.1064 4.85321 14.1049 4.15292 13.451 3.77946C13.1514 3.95051 12.797 4.85406 13.451 5.22752Z" fill="#D8553A"/>
<path d="M1.84249 5.51255C2.31484 5.24277 2.31381 4.73809 1.84249 4.46891C1.6266 4.59219 1.37116 5.24339 1.84249 5.51255Z" fill="#D8553A"/>
<path d="M10.0233 3.26699C10.4957 2.99721 10.4946 2.49253 10.0233 2.22335C9.55095 2.49311 9.55201 2.99783 10.0233 3.26699Z" fill="#D8553A"/>
<path d="M6.54384 6.84726C6.65232 5.9481 7.14134 5.14859 7.96245 4.53909C7.95415 4.49491 7.94715 4.44956 7.94169 4.40293C7.92917 4.29614 7.74857 4.24603 7.63558 4.31804C6.77997 4.86339 6.23085 5.57111 6.02857 6.37159L6.02827 6.37152C6.01327 6.4309 5.99466 6.51738 5.9829 6.58533C5.98293 6.5854 5.98296 6.58544 5.98302 6.5855C5.95844 6.72732 5.94419 6.87169 5.94116 7.01842C5.96401 7.02155 6.48132 7.20825 6.54384 6.84726Z" fill="#E89528"/>
<path d="M5.95366 10.5535C5.73075 9.81453 5.9206 9.0265 6.36164 8.3437C6.27621 8.25958 6.1827 8.14657 6.11351 8.00629C6.06896 7.91606 5.89669 7.89884 5.82191 7.97862C5.80758 7.99392 5.79424 8.00929 5.78224 8.02419C5.21833 8.72433 4.94704 9.57455 5.19781 10.3656C5.3942 10.986 6.10696 11.397 6.96017 11.5733C6.46354 11.3418 6.08787 10.9991 5.95366 10.5535Z" fill="#E8C842"/>
<path d="M7.38785 8.19863C7.46174 7.82781 7.67775 7.41923 8.01778 7.07765C7.98074 6.98121 7.95161 6.87223 7.9374 6.75104C7.92891 6.67874 7.80665 6.6448 7.73018 6.69358C7.27477 6.98387 6.94789 7.3422 6.76219 7.74545L6.76171 7.74537C6.73249 7.80872 6.69118 7.91368 6.66615 7.99652C6.66636 7.99648 6.66657 7.99648 6.66678 7.99642C6.6155 8.16547 6.58698 8.34091 6.58325 8.52152C6.99217 8.55736 7.33044 8.48626 7.38785 8.19863Z" fill="#E8C842"/>
</g>
<defs>
<clipPath id="clip0_181_477">
<rect width="15.5178" height="10.8959" fill="white" transform="translate(0 0.775291)"/>
</clipPath>
</defs>
</svg>
