<svg width="23" height="23" viewBox="0 0 23 23" fill="none" xmlns="http://www.w3.org/2000/svg">
<path d="M11.5 19.4063C11.5 19.4063 2.51562 14.375 2.51562 8.26563C2.51581 7.18583 2.88996 6.13942 3.57447 5.30431C4.25899 4.46919 5.2116 3.89693 6.27036 3.68481C7.32913 3.47268 8.42868 3.6338 9.38207 4.14076C10.3355 4.64771 11.0839 5.46922 11.5 6.46561L11.5 6.46562C11.9161 5.46923 12.6645 4.64772 13.6179 4.14076C14.5713 3.6338 15.6709 3.47268 16.7296 3.68481C17.7884 3.89693 18.741 4.46919 19.4255 5.30431C20.11 6.13942 20.4842 7.18583 20.4844 8.26563C20.4844 14.375 11.5 19.4063 11.5 19.4063Z" fill="#FA4A0C" stroke="#FA4A0C" stroke-width="2" stroke-linecap="round" stroke-linejoin="round"/>
</svg>
