<svg width="27" height="27" viewBox="0 0 12 11" fill="none" xmlns="http://www.w3.org/2000/svg">
<path fill-rule="evenodd" clip-rule="evenodd" d="M6.14399 0.00949097C3.28748 0.00949097 0.972168 2.32728 0.972168 5.18684C0.972168 8.0464 3.28748 10.3642 6.14399 10.3642C9.0005 10.3642 11.3158 8.0464 11.3158 5.18684C11.3158 2.32728 9.0005 0.00949097 6.14399 0.00949097ZM6.14087 0.783114C8.56893 0.783114 10.5369 2.75321 10.5369 5.18386C10.5369 7.61451 8.56893 9.58461 6.14087 9.58461C3.71281 9.58461 1.74482 7.61451 1.74482 5.18386C1.74482 2.75321 3.71281 0.783114 6.14087 0.783114ZM6.35288 2.98364C6.32719 2.79411 6.1649 2.64803 5.96853 2.64803C5.75431 2.64803 5.58064 2.82188 5.58064 3.03633V5.54579L5.58497 5.60365C5.6021 5.71758 5.66926 5.81922 5.76981 5.87927L7.71959 7.04365L7.76661 7.0676C7.94236 7.14262 8.15082 7.07794 8.25143 6.90911L8.27535 6.86205C8.35029 6.68611 8.28568 6.47742 8.11703 6.37671L6.35621 5.32477L6.35642 3.03633L6.35288 2.98364Z" fill="#010101"/>
</svg>
