<svg width="26" height="25" viewBox="0 0 26 25" fill="none" xmlns="http://www.w3.org/2000/svg">
<path d="M2.26074 1H23.7396C23.9334 1 24.1229 1.05627 24.2853 1.16198C24.4476 1.26769 24.5758 1.41828 24.6542 1.59545C24.7325 1.77262 24.7578 1.96874 24.7268 2.15997C24.6958 2.35121 24.6099 2.52932 24.4796 2.67267L16.2603 11.7139C16.0929 11.898 16.0002 12.1378 16.0002 12.3866V19.4648C16.0002 19.6294 15.9595 19.7915 15.8819 19.9367C15.8042 20.0818 15.6919 20.2055 15.5549 20.2969L11.5549 22.9635C11.4043 23.0639 11.2293 23.1216 11.0485 23.1303C10.8677 23.1391 10.6879 23.0986 10.5283 23.0132C10.3688 22.9278 10.2353 22.8006 10.1423 22.6454C10.0493 22.4901 10.0002 22.3125 10.0002 22.1315V12.3866C10.0002 12.1378 9.90747 11.898 9.74013 11.7139L1.5208 2.67267C1.39049 2.52932 1.30461 2.35121 1.27362 2.15997C1.24263 1.96874 1.26785 1.77262 1.34623 1.59545C1.4246 1.41828 1.55275 1.26769 1.7151 1.16198C1.87745 1.05627 2.06701 1 2.26074 1V1Z" stroke="#8B8B8B" stroke-width="2" stroke-linecap="round" stroke-linejoin="round"/>
</svg>
